<svg xmlns="http://www.w3.org/2000/svg" xmlns:xlink="http://www.w3.org/1999/xlink" width="1280" height="618" version="1.1" viewBox="0 0 1280 618"><title>Combined Shape</title><desc>Created with Sketch.</desc><g id="Page-1" fill="none" fill-rule="evenodd" stroke="none" stroke-width="1"><g id="Desktop-HD" fill="#F3F9FF" transform="translate(-146.000000, 0.000000)"><path id="Combined-Shape" d="M262.722575,-1 L1416.21834,-1 C1464.73945,286.970056 1327,483.732172 1003,589.286346 C936.267575,610.827116 874.28664,620.248092 817.057193,617.549273 C610.482212,607.807639 668.589367,404.258313 362.330721,371.033907 C259.17812,359.843418 186,280.494958 186,161.544365 C186,83.0369745 211.065265,29.1486564 261.195795,-0.120588855 L262.722575,-1 L1416.21834,-1 Z M272,396 C294.09139,396 312,413.90861 312,436 C312,458.09139 294.09139,476 272,476 C249.90861,476 232,458.09139 232,436 C232,413.90861 249.90861,396 272,396 Z M168.5,374 C180.926407,374 191,384.073593 191,396.5 C191,408.926407 180.926407,419 168.5,419 C156.073593,419 146,408.926407 146,396.5 C146,384.073593 156.073593,374 168.5,374 Z"/></g></g></svg>